<svg xmlns="http://www.w3.org/2000/svg" width="512" height="512" viewBox="0 0 64 64">
  <rect width="64" height="64" rx="14" fill="#2d2b40"/>
  <!-- Handle -->
  <line x1="46" y1="8" x2="30" y2="30" stroke="#fff" stroke-width="2.8" stroke-linecap="round"/>
  <line x1="45.5" y1="9" x2="30.5" y2="29" stroke="#fff" stroke-width="1.2" stroke-linecap="round" opacity="0.3"/>
  <!-- Band -->
  <ellipse cx="29" cy="31" rx="4" ry="2" transform="rotate(-32,29,31)" fill="#fff"/>
  <!-- Bristles - tapered fan -->
  <path d="M25 33 Q15 44 13 52 Q12 55 15 56 L17 56 Q16 50 20 44 L27 34Z" fill="#fff" stroke="#fff" opacity="0.9"/>
  <path d="M27 33 Q19 44 18 52 Q17 55 20 56 L22 55 Q20 48 24 42 L29 34Z" fill="#fff" stroke="#fff" opacity="0.85"/>
  <path d="M29 33 Q23 43 22 50 Q21 54 24 55 L26 54 Q25 48 27 42 L31 34Z" fill="#fff" stroke="#fff" opacity="0.8"/>
  <path d="M31 33 Q27 42 27 49 Q27 53 29 54 L31 53 Q30 47 31 41 L33 34Z" fill="#fff" stroke="#fff" opacity="0.75"/>
  <path d="M33 32 Q31 41 32 48 Q32 52 34 52 L36 51 Q34 46 34 40 L34 33Z" fill="#fff" stroke="#fff" opacity="0.7"/>
  <path d="M34 31 Q34 39 36 46 Q37 50 39 49 Q38 44 37 38 L35 32Z" fill="#fff" stroke="#fff" opacity="0.55"/>
  <!-- Sparkles -->
  <path d="M52 14 L53.3 18.7 L58 20 L53.3 21.3 L52 26 L50.7 21.3 L46 20 L50.7 18.7Z" fill="#fff" opacity="0.9"/>
  <path d="M12 14 L12.8 16.2 L15 17 L12.8 17.8 L12 20 L11.2 17.8 L9 17 L11.2 16.2Z" fill="#fff" opacity="0.45"/>
  <path d="M50 42 L50.8 44.2 L53 45 L50.8 45.8 L50 48 L49.2 45.8 L47 45 L49.2 44.2Z" fill="#fff" opacity="0.35"/>
  <!-- Dots -->
  <circle cx="8" cy="26" r="1.1" fill="#fff" opacity="0.25"/>
  <circle cx="56" cy="32" r="0.9" fill="#fff" opacity="0.2"/>
</svg>
